<svg xmlns="http://www.w3.org/2000/svg" fill="none" viewBox="0 0 512 512"><rect width="512" height="512" fill="#000" rx="60"/><path fill="#fff" d="M132 342H98.8l60.4-171.6h38.4L258 342h-33.2l-45.8-136.4h-1.4L132 342Zm1-67.3h90.6v25H133v-25ZM280.8 342V170.4h64.4c13.2 0 24.2 2.3 33.2 6.8a47 47 0 0 1 20.3 19.3c4.7 8.2 7 17.8 7 28.8s-2.4 20.5-7 28.6a46.5 46.5 0 0 1-20.6 18.7c-9 4.4-20.2 6.5-33.3 6.5h-45.9v-25.8h41.7c7.7 0 14-1 18.9-3.2 5-2.1 8.5-5.3 10.9-9.4 2.4-4.2 3.6-9.4 3.6-15.4 0-6.1-1.2-11.3-3.6-15.6a23 23 0 0 0-11-10c-4.9-2.2-11.2-3.4-19-3.4h-28.5V342h-31Zm88.7-77.8 42.5 77.8h-34.7l-41.8-77.8h34Z"/></svg>